<?xml version="1.0" encoding="utf-8"?>
<!-- Uploaded to: SVG Repo, www.svgrepo.com, Generator: SVG Repo Mixer Tools -->
<svg fill="#247efc" width="800px" height="800px" viewBox="0 0 32 32" version="1.1" xmlns="http://www.w3.org/2000/svg">
<title>loader</title>
<path d="M16 1.25c-0.414 0-0.75 0.336-0.75 0.75v0 8c0 0.414 0.336 0.75 0.75 0.75s0.75-0.336 0.75-0.75v0-8c-0-0.414-0.336-0.75-0.75-0.75v0zM16 21.25c-0.414 0-0.75 0.336-0.75 0.75v0 8c0 0.414 0.336 0.75 0.75 0.75s0.75-0.336 0.75-0.75v0-8c-0-0.414-0.336-0.75-0.75-0.75v0zM10.75 16c-0-0.414-0.336-0.75-0.75-0.75h-8c-0.414 0-0.75 0.336-0.75 0.75s0.336 0.75 0.75 0.75v0h8c0.414-0 0.75-0.336 0.75-0.75v0zM30 15.25h-8c-0.414 0-0.75 0.336-0.75 0.75s0.336 0.75 0.75 0.75v0h8c0.414 0 0.75-0.336 0.75-0.75s-0.336-0.75-0.75-0.75v0zM6.631 5.57c-0.135-0.131-0.319-0.212-0.522-0.212-0.414 0-0.75 0.336-0.75 0.75 0 0.203 0.081 0.387 0.212 0.522l5.657 5.657c0.135 0.13 0.318 0.209 0.52 0.209 0.414 0 0.75-0.336 0.75-0.75 0-0.202-0.080-0.385-0.21-0.52l0 0zM20.773 19.711c-0.136-0.136-0.324-0.22-0.531-0.22-0.415 0-0.751 0.336-0.751 0.751 0 0.207 0.084 0.395 0.22 0.531l5.658 5.658c0.136 0.136 0.324 0.22 0.531 0.22 0.415 0 0.751-0.336 0.751-0.751 0-0.207-0.084-0.395-0.22-0.531v0zM11.228 19.711l-5.657 5.658c-0.136 0.136-0.22 0.324-0.22 0.531 0 0.415 0.336 0.751 0.751 0.751 0.207 0 0.394-0.084 0.53-0.219v0l5.657-5.658c0.136-0.136 0.22-0.324 0.22-0.531 0-0.415-0.336-0.751-0.751-0.751-0.207 0-0.395 0.084-0.53 0.219v0zM20.242 12.508c0 0 0 0 0.001 0 0.207 0 0.395-0.084 0.531-0.22l5.658-5.657c0.136-0.136 0.219-0.323 0.219-0.53 0-0.415-0.336-0.751-0.751-0.751-0.208 0-0.395 0.084-0.531 0.22v0l-5.658 5.657c-0.136 0.136-0.22 0.323-0.22 0.53 0 0.414 0.336 0.75 0.75 0.75 0 0 0.001 0 0.001 0h-0z"></path>
</svg>